# This file uses centimeters as units for non-parametric coordinates.

v -0.500000 -0.500000 0.500000
v -0.250000 -0.500000 0.500000
v 0.000000 -0.500000 0.500000
v 0.250000 -0.500000 0.500000
v 0.500000 -0.500000 0.500000
v -0.500000 0.340000 0.500000
v -0.250000 0.250000 0.500000
v 0.000000 0.340000 0.500000
v 0.250000 0.250000 0.500000
v 0.500000 0.340000 0.500000
v -0.500000 0.250000 0.250000
v -0.250000 0.380000 0.250000
v 0.000000 0.250000 0.250000
v 0.250000 0.380000 0.250000
v 0.500000 0.250000 0.250000
v -0.500000 0.340000 0.000000
v -0.250000 0.250000 0.000000
v 0.000000 0.380000 0.000000
v 0.250000 0.250000 0.000000
v 0.500000 0.340000 0.000000
v -0.500000 0.250000 -0.250000
v -0.250000 0.380000 -0.250000
v 0.000000 0.250000 -0.250000
v 0.250000 0.380000 -0.250000
v 0.500000 0.250000 -0.250000
v -0.500000 0.340000 -0.500000
v -0.250000 0.250000 -0.500000
v 0.000000 0.340000 -0.500000
v 0.250000 0.250000 -0.500000
v 0.500000 0.340000 -0.500000
v -0.500000 -0.500000 -0.500000
v -0.250000 -0.500000 -0.500000
v 0.000000 -0.500000 -0.500000
v 0.250000 -0.500000 -0.500000
v 0.500000 -0.500000 -0.500000
v -0.500000 -0.500000 -0.250000
v -0.250000 -0.500000 -0.250000
v 0.000000 -0.500000 -0.250000
v 0.250000 -0.500000 -0.250000
v 0.500000 -0.500000 -0.250000
v -0.500000 -0.500000 0.000000
v -0.250000 -0.500000 0.000000
v 0.000000 -0.500000 0.000000
v 0.250000 -0.500000 0.000000
v 0.500000 -0.500000 0.000000
v -0.500000 -0.500000 0.250000
v -0.250000 -0.500000 0.250000
v 0.000000 -0.500000 0.250000
v 0.250000 -0.500000 0.250000
v 0.500000 -0.500000 0.250000
v -0.379703 0.250000 0.370297
v -0.129702 0.250000 0.120298
v 0.120298 0.250000 -0.129702
v 0.370297 0.250000 -0.379703
v -0.361344 0.250000 0.138656
v -0.111344 0.250000 -0.111344
v 0.138656 0.250000 -0.361344
v -0.129951 0.250000 0.370049
v 0.120049 0.250000 0.120049
v 0.370049 0.250000 -0.129951
v 0.140401 0.250000 0.390401
v 0.390401 0.250000 0.140401
v -0.399806 0.250000 -0.149806
v -0.149806 0.250000 -0.399806
v -0.342762 0.250000 -0.342762
v 0.351178 0.250000 0.351178
vt 0.437500 0.000000
vt 0.437500 0.250000
vt 0.375000 0.000000
vt 0.375000 0.250000
vt 0.500000 0.000000
vt 0.500000 0.250000
vt 0.562500 0.000000
vt 0.562500 0.250000
vt 0.625000 0.000000
vt 0.625000 0.250000
vt 0.405074 0.282426
vt 0.375000 0.312500
vt 0.437500 0.312500
vt 0.467512 0.282488
vt 0.500000 0.312500
vt 0.535100 0.277400
vt 0.562500 0.312500
vt 0.587794 0.287206
vt 0.625000 0.312500
vt 0.409664 0.340336
vt 0.375000 0.375000
vt 0.437500 0.375000
vt 0.467574 0.344926
vt 0.500000 0.375000
vt 0.530012 0.344988
vt 0.562500 0.375000
vt 0.597600 0.339900
vt 0.625000 0.375000
vt 0.400048 0.412452
vt 0.375000 0.437500
vt 0.437500 0.437500
vt 0.472164 0.402836
vt 0.500000 0.437500
vt 0.530074 0.407426
vt 0.562500 0.437500
vt 0.592512 0.407488
vt 0.625000 0.437500
vt 0.414310 0.460690
vt 0.437500 0.500000
vt 0.462548 0.474952
vt 0.500000 0.500000
vt 0.534664 0.465336
vt 0.562500 0.500000
vt 0.592574 0.469926
vt 0.625000 0.500000
vt 0.375000 0.500000
vt 0.375000 0.750000
vt 0.437500 0.750000
vt 0.500000 0.750000
vt 0.562500 0.750000
vt 0.625000 0.750000
vt 0.375000 0.812500
vt 0.437500 0.812500
vt 0.500000 0.812500
vt 0.562500 0.812500
vt 0.625000 0.812500
vt 0.375000 0.875000
vt 0.437500 0.875000
vt 0.500000 0.875000
vt 0.562500 0.875000
vt 0.625000 0.875000
vt 0.375000 0.937500
vt 0.437500 0.937500
vt 0.500000 0.937500
vt 0.562500 0.937500
vt 0.625000 0.937500
vt 0.375000 1.000000
vt 0.437500 1.000000
vt 0.500000 1.000000
vt 0.562500 1.000000
vt 0.625000 1.000000
vt 0.812500 0.000000
vt 0.875000 0.000000
vt 0.812500 0.250000
vt 0.875000 0.250000
vt 0.750000 0.000000
vt 0.750000 0.250000
vt 0.687500 0.000000
vt 0.687500 0.250000
vt 0.187500 0.000000
vt 0.187500 0.250000
vt 0.125000 0.000000
vt 0.125000 0.250000
vt 0.250000 0.000000
vt 0.250000 0.250000
vt 0.312500 0.000000
vt 0.312500 0.250000
vn 0.000000 0.000000 1.000000
vn 0.000000 0.000000 1.000000
vn 0.000000 0.000000 1.000000
vn 0.000000 0.000000 1.000000
vn 0.000000 0.000000 1.000000
vn 0.000000 0.000000 1.000000
vn 0.000000 0.000000 1.000000
vn 0.000000 0.000000 1.000000
vn 0.000000 0.000000 1.000000
vn -0.000000 0.000000 1.000000
vn -0.000000 0.000000 1.000000
vn -0.000000 0.000000 1.000000
vn 0.000000 0.000000 1.000000
vn 0.000000 0.000000 1.000000
vn 0.000000 0.000000 1.000000
vn 0.000000 0.000000 1.000000
vn 0.000000 0.000000 1.000000
vn 0.000000 0.000000 1.000000
vn 0.000000 0.000000 1.000000
vn 0.000000 0.000000 1.000000
vn 0.000000 0.000000 1.000000
vn -0.000000 0.000000 1.000000
vn -0.000000 0.000000 1.000000
vn -0.000000 0.000000 1.000000
vn 0.320815 0.891154 -0.320815
vn 0.320815 0.891154 -0.320816
vn 0.320815 0.891154 -0.320816
vn -0.418919 0.805614 0.418919
vn -0.418919 0.805614 0.418919
vn -0.418919 0.805614 0.418919
vn 0.446789 0.793739 0.412744
vn 0.446789 0.793739 0.412744
vn 0.446789 0.793739 0.412744
vn 0.412744 0.793739 0.446789
vn 0.412744 0.793739 0.446789
vn 0.412744 0.793739 0.446789
vn 0.320815 0.891154 -0.320815
vn 0.320815 0.891154 -0.320816
vn 0.320815 0.891154 -0.320816
vn -0.418919 0.805614 0.418919
vn -0.418919 0.805614 0.418919
vn -0.418919 0.805614 0.418919
vn 0.561518 0.734140 0.381753
vn 0.561518 0.734141 0.381753
vn 0.561518 0.734140 0.381753
vn 0.381753 0.734141 0.561518
vn 0.381753 0.734140 0.561518
vn 0.381753 0.734140 0.561518
vn 0.262464 0.907902 0.326845
vn 0.262464 0.907902 0.326845
vn 0.262464 0.907902 0.326845
vn 0.326845 0.907902 0.262464
vn 0.326845 0.907902 0.262464
vn 0.326845 0.907902 0.262464
vn 0.418919 0.805614 -0.418919
vn 0.418919 0.805614 -0.418919
vn 0.418919 0.805614 -0.418919
vn -0.418919 0.805614 0.418919
vn -0.418919 0.805614 0.418919
vn -0.418919 0.805614 0.418919
vn 0.446789 0.793739 0.412744
vn 0.446789 0.793739 0.412744
vn 0.446789 0.793739 0.412744
vn 0.412744 0.793739 0.446789
vn 0.412744 0.793739 0.446789
vn 0.412744 0.793739 0.446789
vn 0.418919 0.805614 -0.418919
vn 0.418919 0.805614 -0.418919
vn 0.418919 0.805614 -0.418919
vn -0.320815 0.891154 0.320815
vn -0.320815 0.891154 0.320815
vn -0.320815 0.891154 0.320815
vn 0.320815 0.891154 -0.320816
vn 0.320815 0.891154 -0.320816
vn 0.320815 0.891154 -0.320816
vn -0.418919 0.805614 0.418919
vn -0.418919 0.805614 0.418919
vn -0.418919 0.805614 0.418919
vn 0.347402 0.831958 0.432618
vn 0.347402 0.831958 0.432618
vn 0.347402 0.831958 0.432618
vn 0.432618 0.831958 0.347402
vn 0.432618 0.831958 0.347402
vn 0.432618 0.831958 0.347402
vn 0.418919 0.805614 -0.418919
vn 0.418919 0.805614 -0.418919
vn 0.418919 0.805614 -0.418919
vn -0.418919 0.805614 0.418919
vn -0.418919 0.805614 0.418919
vn -0.418919 0.805614 0.418919
vn 0.446789 0.793739 0.412744
vn 0.446789 0.793739 0.412744
vn 0.446789 0.793739 0.412744
vn 0.412744 0.793739 0.446789
vn 0.412744 0.793739 0.446789
vn 0.412744 0.793739 0.446789
vn -0.363420 0.698886 -0.616023
vn -0.363421 0.698886 -0.616023
vn -0.363421 0.698886 -0.616023
vn -0.616023 0.698886 -0.363421
vn -0.616023 0.698886 -0.363421
vn -0.616023 0.698886 -0.363420
vn 0.418919 0.805614 -0.418919
vn 0.418919 0.805614 -0.418919
vn 0.418919 0.805614 -0.418919
vn -0.320815 0.891154 0.320816
vn -0.320815 0.891154 0.320816
vn -0.320815 0.891154 0.320816
vn 0.262464 0.907902 0.326845
vn 0.262464 0.907902 0.326845
vn 0.262464 0.907902 0.326845
vn 0.326845 0.907902 0.262464
vn 0.326845 0.907902 0.262464
vn 0.326845 0.907902 0.262464
vn 0.418919 0.805614 -0.418919
vn 0.418919 0.805614 -0.418919
vn 0.418919 0.805614 -0.418919
vn -0.320815 0.891154 0.320816
vn -0.320815 0.891154 0.320815
vn -0.320815 0.891154 0.320816
vn 0.000000 0.000000 -1.000000
vn 0.000000 0.000000 -1.000000
vn 0.000000 0.000000 -1.000000
vn 0.000000 0.000000 -1.000000
vn 0.000000 0.000000 -1.000000
vn 0.000000 0.000000 -1.000000
vn -0.000000 0.000000 -1.000000
vn -0.000000 0.000000 -1.000000
vn -0.000000 0.000000 -1.000000
vn 0.000000 0.000000 -1.000000
vn 0.000000 0.000000 -1.000000
vn 0.000000 0.000000 -1.000000
vn 0.000000 0.000000 -1.000000
vn 0.000000 0.000000 -1.000000
vn 0.000000 0.000000 -1.000000
vn 0.000000 0.000000 -1.000000
vn 0.000000 0.000000 -1.000000
vn 0.000000 0.000000 -1.000000
vn -0.000000 0.000000 -1.000000
vn -0.000000 0.000000 -1.000000
vn -0.000000 0.000000 -1.000000
vn 0.000000 0.000000 -1.000000
vn 0.000000 0.000000 -1.000000
vn 0.000000 0.000000 -1.000000
vn 0.000000 -1.000000 0.000000
vn 0.000000 -1.000000 0.000000
vn 0.000000 -1.000000 0.000000
vn 0.000000 -1.000000 0.000000
vn 0.000000 -1.000000 0.000000
vn 0.000000 -1.000000 0.000000
vn 0.000000 -1.000000 0.000000
vn 0.000000 -1.000000 0.000000
vn 0.000000 -1.000000 0.000000
vn 0.000000 -1.000000 0.000000
vn 0.000000 -1.000000 0.000000
vn 0.000000 -1.000000 0.000000
vn 0.000000 -1.000000 0.000000
vn 0.000000 -1.000000 0.000000
vn 0.000000 -1.000000 0.000000
vn 0.000000 -1.000000 0.000000
vn 0.000000 -1.000000 0.000000
vn 0.000000 -1.000000 0.000000
vn 0.000000 -1.000000 0.000000
vn 0.000000 -1.000000 0.000000
vn 0.000000 -1.000000 0.000000
vn 0.000000 -1.000000 0.000000
vn 0.000000 -1.000000 0.000000
vn 0.000000 -1.000000 0.000000
vn 0.000000 -1.000000 0.000000
vn 0.000000 -1.000000 0.000000
vn 0.000000 -1.000000 0.000000
vn 0.000000 -1.000000 0.000000
vn 0.000000 -1.000000 0.000000
vn 0.000000 -1.000000 0.000000
vn 0.000000 -1.000000 0.000000
vn 0.000000 -1.000000 0.000000
vn 0.000000 -1.000000 0.000000
vn 0.000000 -1.000000 0.000000
vn 0.000000 -1.000000 0.000000
vn 0.000000 -1.000000 0.000000
vn 0.000000 -1.000000 0.000000
vn 0.000000 -1.000000 0.000000
vn 0.000000 -1.000000 0.000000
vn 0.000000 -1.000000 0.000000
vn 0.000000 -1.000000 0.000000
vn 0.000000 -1.000000 0.000000
vn 0.000000 -1.000000 0.000000
vn 0.000000 -1.000000 0.000000
vn 0.000000 -1.000000 0.000000
vn 0.000000 -1.000000 0.000000
vn 0.000000 -1.000000 0.000000
vn 0.000000 -1.000000 0.000000
vn 0.000000 -1.000000 0.000000
vn 0.000000 -1.000000 0.000000
vn 0.000000 -1.000000 0.000000
vn 0.000000 -1.000000 0.000000
vn 0.000000 -1.000000 0.000000
vn 0.000000 -1.000000 0.000000
vn 0.000000 -1.000000 0.000000
vn 0.000000 -1.000000 0.000000
vn 0.000000 -1.000000 0.000000
vn 0.000000 -1.000000 0.000000
vn 0.000000 -1.000000 0.000000
vn 0.000000 -1.000000 0.000000
vn 0.000000 -1.000000 0.000000
vn 0.000000 -1.000000 0.000000
vn 0.000000 -1.000000 0.000000
vn 0.000000 -1.000000 0.000000
vn 0.000000 -1.000000 0.000000
vn 0.000000 -1.000000 0.000000
vn 0.000000 -1.000000 0.000000
vn 0.000000 -1.000000 0.000000
vn 0.000000 -1.000000 0.000000
vn 0.000000 -1.000000 0.000000
vn 0.000000 -1.000000 0.000000
vn 0.000000 -1.000000 0.000000
vn 0.000000 -1.000000 0.000000
vn 0.000000 -1.000000 0.000000
vn 0.000000 -1.000000 0.000000
vn 0.000000 -1.000000 0.000000
vn 0.000000 -1.000000 0.000000
vn 0.000000 -1.000000 0.000000
vn 0.000000 -1.000000 0.000000
vn 0.000000 -1.000000 0.000000
vn 0.000000 -1.000000 0.000000
vn 0.000000 -1.000000 0.000000
vn 0.000000 -1.000000 0.000000
vn 0.000000 -1.000000 0.000000
vn 0.000000 -1.000000 0.000000
vn 0.000000 -1.000000 0.000000
vn 0.000000 -1.000000 0.000000
vn 0.000000 -1.000000 0.000000
vn 0.000000 -1.000000 0.000000
vn 0.000000 -1.000000 0.000000
vn 0.000000 -1.000000 0.000000
vn 0.000000 -1.000000 0.000000
vn 0.000000 -1.000000 0.000000
vn 0.000000 -1.000000 0.000000
vn 0.000000 -1.000000 0.000000
vn 0.000000 -1.000000 0.000000
vn 1.000000 0.000000 0.000000
vn 1.000000 0.000000 0.000000
vn 1.000000 0.000000 0.000000
vn 1.000000 0.000000 0.000000
vn 1.000000 0.000000 0.000000
vn 1.000000 0.000000 0.000000
vn 1.000000 0.000000 0.000000
vn 1.000000 0.000000 0.000000
vn 1.000000 0.000000 0.000000
vn 1.000000 0.000000 0.000000
vn 1.000000 0.000000 0.000000
vn 1.000000 0.000000 0.000000
vn 1.000000 0.000000 0.000000
vn 1.000000 0.000000 0.000000
vn 1.000000 0.000000 0.000000
vn 1.000000 0.000000 0.000000
vn 1.000000 0.000000 0.000000
vn 1.000000 0.000000 0.000000
vn 1.000000 0.000000 0.000000
vn 1.000000 0.000000 0.000000
vn 1.000000 0.000000 0.000000
vn 1.000000 0.000000 0.000000
vn 1.000000 0.000000 0.000000
vn 1.000000 0.000000 0.000000
vn -1.000000 0.000000 0.000000
vn -1.000000 0.000000 0.000000
vn -1.000000 0.000000 0.000000
vn -1.000000 0.000000 0.000000
vn -1.000000 0.000000 0.000000
vn -1.000000 0.000000 0.000000
vn -1.000000 0.000000 0.000000
vn -1.000000 0.000000 0.000000
vn -1.000000 0.000000 0.000000
vn -1.000000 0.000000 0.000000
vn -1.000000 0.000000 0.000000
vn -1.000000 0.000000 0.000000
vn -1.000000 0.000000 0.000000
vn -1.000000 0.000000 0.000000
vn -1.000000 0.000000 0.000000
vn -1.000000 0.000000 0.000000
vn -1.000000 0.000000 0.000000
vn -1.000000 0.000000 0.000000
vn -1.000000 0.000000 0.000000
vn -1.000000 0.000000 0.000000
vn -1.000000 0.000000 0.000000
vn -1.000000 0.000000 0.000000
vn -1.000000 0.000000 0.000000
vn -1.000000 0.000000 0.000000
vn 0.320815 0.891154 -0.320815
vn 0.320815 0.891154 -0.320815
vn 0.320815 0.891154 -0.320815
vn -0.418919 0.805614 0.418919
vn -0.418919 0.805614 0.418919
vn -0.418919 0.805614 0.418919
vn 0.418919 0.805614 -0.418919
vn 0.418919 0.805614 -0.418919
vn 0.418919 0.805614 -0.418919
vn -0.418919 0.805614 0.418919
vn -0.418919 0.805614 0.418919
vn -0.418919 0.805614 0.418919
vn 0.418919 0.805614 -0.418919
vn 0.418919 0.805614 -0.418919
vn 0.418919 0.805614 -0.418919
vn -0.418919 0.805614 0.418919
vn -0.418919 0.805614 0.418919
vn -0.418919 0.805614 0.418919
vn 0.418919 0.805614 -0.418919
vn 0.418919 0.805614 -0.418919
vn 0.418919 0.805614 -0.418919
vn -0.320815 0.891154 0.320815
vn -0.320815 0.891154 0.320815
vn -0.320815 0.891154 0.320815
vn -0.400033 0.769293 -0.498158
vn -0.400032 0.769294 -0.498158
vn -0.400032 0.769294 -0.498158
vn -0.498158 0.769293 -0.400033
vn -0.498158 0.769293 -0.400033
vn -0.498158 0.769293 -0.400033
vn -0.400033 0.769293 -0.498158
vn -0.400033 0.769293 -0.498158
vn -0.400033 0.769293 -0.498158
vn -0.498158 0.769293 -0.400032
vn -0.498158 0.769294 -0.400033
vn -0.498158 0.769293 -0.400032
vn -0.400033 0.769293 -0.498158
vn -0.400033 0.769293 -0.498158
vn -0.400033 0.769294 -0.498158
vn -0.498158 0.769293 -0.400033
vn -0.498158 0.769293 -0.400033
vn -0.498158 0.769294 -0.400033
vn -0.323263 0.897953 -0.298631
vn -0.323263 0.897953 -0.298631
vn -0.323263 0.897953 -0.298631
vn -0.298631 0.897953 -0.323263
vn -0.298631 0.897953 -0.323263
vn -0.298631 0.897953 -0.323263
vn -0.424414 0.816181 -0.392074
vn -0.424414 0.816181 -0.392074
vn -0.424414 0.816181 -0.392074
vn -0.392074 0.816180 -0.424414
vn -0.392074 0.816180 -0.424414
vn -0.392074 0.816181 -0.424414
vn -0.323263 0.897953 -0.298631
vn -0.323263 0.897953 -0.298631
vn -0.323263 0.897953 -0.298631
vn -0.298631 0.897953 -0.323263
vn -0.298631 0.897953 -0.323263
vn -0.298631 0.897953 -0.323263
vn 0.320815 0.891154 -0.320815
vn 0.320815 0.891154 -0.320815
vn 0.320815 0.891154 -0.320815
vn -0.418919 0.805614 0.418919
vn -0.418919 0.805614 0.418919
vn -0.418919 0.805614 0.418919
vn 0.418919 0.805614 -0.418919
vn 0.418919 0.805614 -0.418919
vn 0.418919 0.805614 -0.418919
vn -0.320815 0.891154 0.320816
vn -0.320815 0.891154 0.320816
vn -0.320815 0.891154 0.320816
vn 0.320815 0.891154 -0.320815
vn 0.320815 0.891154 -0.320815
vn 0.320815 0.891154 -0.320815
vn -0.418919 0.805614 0.418919
vn -0.418919 0.805614 0.418919
vn -0.418919 0.805614 0.418919
vn 0.418919 0.805614 -0.418919
vn 0.418919 0.805614 -0.418919
vn 0.418919 0.805614 -0.418919
vn -0.320815 0.891154 0.320815
vn -0.320815 0.891154 0.320815
vn -0.320815 0.891154 0.320815
vn 0.332153 0.922647 0.195953
vn 0.332153 0.922647 0.195952
vn 0.332153 0.922647 0.195953
vn 0.195952 0.922647 0.332153
vn 0.195952 0.922647 0.332153
vn 0.195952 0.922647 0.332153
vn -0.330081 0.916890 -0.224408
vn -0.330081 0.916890 -0.224408
vn -0.330081 0.916890 -0.224408
vn -0.224408 0.916890 -0.330081
vn -0.224408 0.916890 -0.330081
vn -0.224408 0.916890 -0.330081
f 2/1/1 7/2/2 1/3/3
f 1/3/4 7/2/5 6/4/6
f 2/1/7 3/5/8 7/2/9
f 7/2/10 3/5/11 8/6/12
f 4/7/13 9/8/14 3/5/15
f 3/5/16 9/8/17 8/6/18
f 4/7/19 5/9/20 9/8/21
f 9/8/22 5/9/23 10/10/24
f 6/4/25 51/11/26 11/12/27
f 51/11/28 12/13/29 11/12/30
f 7/2/31 58/14/32 12/13/33
f 58/14/34 13/15/35 12/13/36
f 8/6/37 61/16/38 13/15/39
f 61/16/40 14/17/41 13/15/42
f 9/8/43 66/18/44 14/17/45
f 66/18/46 15/19/47 14/17/48
f 11/12/49 55/20/50 16/21/51
f 55/20/52 17/22/53 16/21/54
f 12/13/55 52/23/56 17/22/57
f 52/23/58 18/24/59 17/22/60
f 13/15/61 59/25/62 18/24/63
f 59/25/64 19/26/65 18/24/66
f 14/17/67 62/27/68 19/26/69
f 62/27/70 20/28/71 19/26/72
f 16/21/73 63/29/74 21/30/75
f 63/29/76 22/31/77 21/30/78
f 17/22/79 56/32/80 22/31/81
f 56/32/82 23/33/83 22/31/84
f 18/24/85 53/34/86 23/33/87
f 53/34/88 24/35/89 23/33/90
f 19/26/91 60/36/92 24/35/93
f 60/36/94 25/37/95 24/35/96
f 21/30/97 22/31/98 65/38/99
f 22/31/100 27/39/101 65/38/102
f 22/31/103 64/40/104 27/39/105
f 64/40/106 28/41/107 27/39/108
f 23/33/109 57/42/110 28/41/111
f 57/42/112 29/43/113 28/41/114
f 24/35/115 54/44/116 29/43/117
f 54/44/118 30/45/119 29/43/120
f 26/46/121 27/39/122 31/47/123
f 31/47/124 27/39/125 32/48/126
f 28/41/127 33/49/128 27/39/129
f 27/39/130 33/49/131 32/48/132
f 28/41/133 29/43/134 33/49/135
f 33/49/136 29/43/137 34/50/138
f 30/45/139 35/51/140 29/43/141
f 29/43/142 35/51/143 34/50/144
f 31/47/145 32/48/146 36/52/147
f 36/52/148 32/48/149 37/53/150
f 32/48/151 33/49/152 37/53/153
f 37/53/154 33/49/155 38/54/156
f 33/49/157 34/50/158 38/54/159
f 38/54/160 34/50/161 39/55/162
f 34/50/163 35/51/164 39/55/165
f 39/55/166 35/51/167 40/56/168
f 36/52/169 37/53/170 41/57/171
f 41/57/172 37/53/173 42/58/174
f 37/53/175 38/54/176 42/58/177
f 42/58/178 38/54/179 43/59/180
f 38/54/181 39/55/182 43/59/183
f 43/59/184 39/55/185 44/60/186
f 39/55/187 40/56/188 44/60/189
f 44/60/190 40/56/191 45/61/192
f 41/57/193 42/58/194 46/62/195
f 46/62/196 42/58/197 47/63/198
f 42/58/199 43/59/200 47/63/201
f 47/63/202 43/59/203 48/64/204
f 43/59/205 44/60/206 48/64/207
f 48/64/208 44/60/209 49/65/210
f 44/60/211 45/61/212 49/65/213
f 49/65/214 45/61/215 50/66/216
f 46/62/217 47/63/218 1/67/219
f 1/67/220 47/63/221 2/68/222
f 47/63/223 48/64/224 2/68/225
f 2/68/226 48/64/227 3/69/228
f 48/64/229 49/65/230 3/69/231
f 3/69/232 49/65/233 4/70/234
f 49/65/235 50/66/236 4/70/237
f 4/70/238 50/66/239 5/71/240
f 40/72/241 35/73/242 25/74/243
f 25/74/244 35/73/245 30/75/246
f 40/72/247 25/74/248 45/76/249
f 45/76/250 25/74/251 20/77/252
f 50/78/253 45/76/254 15/79/255
f 15/79/256 45/76/257 20/77/258
f 50/78/259 15/79/260 5/9/261
f 5/9/262 15/79/263 10/10/264
f 36/80/265 21/81/266 31/82/267
f 31/82/268 21/81/269 26/83/270
f 36/80/271 41/84/272 21/81/273
f 21/81/274 41/84/275 16/85/276
f 46/86/277 11/87/278 41/84/279
f 41/84/280 11/87/281 16/85/282
f 46/86/283 1/3/284 11/87/285
f 11/87/286 1/3/287 6/4/288
f 6/4/289 7/2/290 51/11/291
f 7/2/292 12/13/293 51/11/294
f 12/13/295 13/15/296 52/23/297
f 13/15/298 18/24/299 52/23/300
f 18/24/301 19/26/302 53/34/303
f 19/26/304 24/35/305 53/34/306
f 24/35/307 25/37/308 54/44/309
f 25/37/310 30/45/311 54/44/312
f 11/12/313 12/13/314 55/20/315
f 12/13/316 17/22/317 55/20/318
f 17/22/319 18/24/320 56/32/321
f 18/24/322 23/33/323 56/32/324
f 23/33/325 24/35/326 57/42/327
f 24/35/328 29/43/329 57/42/330
f 7/2/331 8/6/332 58/14/333
f 8/6/334 13/15/335 58/14/336
f 13/15/337 14/17/338 59/25/339
f 14/17/340 19/26/341 59/25/342
f 19/26/343 20/28/344 60/36/345
f 20/28/346 25/37/347 60/36/348
f 8/6/349 9/8/350 61/16/351
f 9/8/352 14/17/353 61/16/354
f 14/17/355 15/19/356 62/27/357
f 15/19/358 20/28/359 62/27/360
f 16/21/361 17/22/362 63/29/363
f 17/22/364 22/31/365 63/29/366
f 22/31/367 23/33/368 64/40/369
f 23/33/370 28/41/371 64/40/372
f 65/38/373 27/39/374 26/46/375
f 21/30/376 65/38/377 26/46/378
f 9/8/379 10/10/380 66/18/381
f 10/10/382 15/19/383 66/18/384
